<svg xmlns="http://www.w3.org/2000/svg" viewBox="0 0 151 151"><defs><style>.a,.c{fill:none;}.b{fill:#f0ab00;}.c{stroke:#000;stroke-linecap:round;stroke-linejoin:round;stroke-width:0;}</style></defs><title>dev-sap-iot-enablement</title><circle class="a" cx="43.6" cy="43.6" r="3.1"/><circle class="a" cx="32.8" cy="43.6" r="3.1"/><circle class="a" cx="21.9" cy="43.6" r="3.1"/><path class="a" d="M17.9,48.3V93.4H39.7a4.3,4.3,0,0,0-3.5-2.6l-5-.6,1.2-4.9a41.2,41.2,0,0,1,4.9-11.9l2.6-4.3,4,3.1a4.3,4.3,0,0,0,6-6l-3.1-4,4.3-2.6a41.2,41.2,0,0,1,11.9-4.9l4.9-1.2.6,5A4.3,4.3,0,0,0,70.9,62V48.3Z"/><path class="b" d="M39.7,93.4H17.9V48.3h53V62a4.2,4.2,0,0,0,1.8.4l1.3-.2V37.3H14.8V96.5H39.7a4.1,4.1,0,0,0-.1-3.1ZM21.9,46.7a3.1,3.1,0,1,1,3.1-3.1A3.1,3.1,0,0,1,21.9,46.7Zm10.8,0a3.1,3.1,0,1,1,3.1-3.1A3.1,3.1,0,0,1,32.8,46.7Zm10.8,0a3.1,3.1,0,1,1,3.1-3.1A3.1,3.1,0,0,1,43.6,46.7Z"/><path d="M108.6,86.4a36.8,36.8,0,0,0-4.4-10.6A8.8,8.8,0,0,1,91.9,63.5a36.8,36.8,0,0,0-10.6-4.4,8.8,8.8,0,0,1-17.4,0,36.8,36.8,0,0,0-10.6,4.4A8.8,8.8,0,0,1,41.1,75.8a36.8,36.8,0,0,0-4.4,10.6,8.8,8.8,0,0,1,0,17.4,36.8,36.8,0,0,0,4.4,10.6,8.8,8.8,0,0,1,12.3,12.3A36.8,36.8,0,0,0,64,131a8.8,8.8,0,0,1,17.4,0,36.8,36.8,0,0,0,10.6-4.4,8.8,8.8,0,0,1,12.3-12.3,36.8,36.8,0,0,0,4.4-10.6,8.8,8.8,0,0,1,0-17.4ZM75.4,74s0,0,0,0S75.4,74,75.4,74ZM58.9,95.1a13.8,13.8,0,1,1,13.8,13.8A13.8,13.8,0,0,1,58.9,95.1ZM75.4,80.9s0,0,0,0S75.4,80.9,75.4,80.9Zm0-13.9s0,0,0,0S75.4,67.1,75.4,67.1Z"/><circle class="b" cx="72.7" cy="95.1" r="8.8"/><path class="c" d="M75.4,67.1s0,0,0,0"/><path class="c" d="M75.4,80.9s0,0,0,0"/><path class="c" d="M75.4,74s0,0,0,0"/><rect class="b" x="86.7" y="24" width="29.5" height="29.48" rx="5" ry="5"/><rect class="b" x="116.2" y="58.2" width="19.7" height="19.73" rx="3.4" ry="3.4"/><rect class="b" x="126.1" y="35.3" width="11.9" height="11.87" rx="2" ry="2"/></svg>